# xmcd CD database file
#
# Track frame offsets:
#	150
#	17651
#	29290
#	43785
#	59880
#	70225
#	87641
#	104646
#	120061
#	139369
#	150589
#	163087
#
# Disc length: 2397 seconds
#
# Revision: 0
# Processed by: cddbd v1.5.1PL2 Copyright (c) Steve Scherf et al.
# Submitted via: CDex 1.70beta1
#
DISCID=a8095b0c
DTITLE=Tom Routledge - I Just Wanna Dance With You
DYEAR=2006
DGENRE=Country
TTITLE0=All You Ever Do Is Bring Me Down
TTITLE1=Streets Of Baltimore
TTITLE2=Cowboy Rides Away
TTITLE3=Adilida
TTITLE4=Just A Memory
TTITLE5=There Goes
TTITLE6=The Losing Side Of Me
TTITLE7=I Just Wanna Dance With You
TTITLE8=Murder On Music Row
TTITLE9=Stay Out Of My Arms
TTITLE10=Somewhere Between
TTITLE11=I Walk The Line (Revisted)
EXTD=YEAR: 2006
EXTT0=
EXTT1=
EXTT2=
EXTT3=
EXTT4=
EXTT5=
EXTT6=
EXTT7=
EXTT8=
EXTT9=
EXTT10=
EXTT11=
PLAYORDER=
